<svg width="512" height="512" viewBox="0 0 512 512" fill="none" xmlns="http://www.w3.org/2000/svg">
<circle cx="256" cy="256" r="256" fill="#004A39"/>
<path d="M249 130.745C240.951 158.637 226.167 184.049 205.99 204.674C185.812 225.299 160.88 240.486 133.454 248.855C131.941 249.306 130.613 250.241 129.668 251.522C128.723 252.803 128.212 254.36 128.212 255.96C128.212 257.56 128.723 259.117 129.668 260.397C130.613 261.678 131.941 262.614 133.454 263.064C160.877 271.439 185.807 286.627 205.984 307.251C226.16 327.876 240.946 353.285 249 381.174C249.434 382.722 250.354 384.084 251.62 385.054C252.886 386.024 254.429 386.549 256.016 386.549C257.602 386.549 259.145 386.024 260.411 385.054C261.677 384.084 262.597 382.722 263.031 381.174C271.08 353.287 285.86 327.879 306.031 307.255C326.203 286.63 351.127 271.441 378.546 263.064C380.059 262.614 381.387 261.678 382.332 260.397C383.277 259.117 383.788 257.56 383.788 255.96C383.788 254.36 383.277 252.803 382.332 251.522C381.387 250.241 380.059 249.306 378.546 248.855C351.125 240.484 326.197 225.296 306.025 204.671C285.853 184.046 271.075 158.635 263.031 130.745C262.578 129.215 261.651 127.873 260.387 126.92C259.123 125.966 257.59 125.451 256.016 125.451C254.441 125.451 252.908 125.966 251.644 126.92C250.381 127.873 249.453 129.215 249 130.745Z" fill="#FF3003"/>
</svg>
