<svg width="219" height="162" viewBox="0 0 219 162" fill="none" xmlns="http://www.w3.org/2000/svg">
<g clip-path="url(#clip0_703_321)">
<path d="M159.88 158.36C160.13 157.2 161.13 155.99 161.77 154.88C165.72 148.72 169.63 142.95 173.01 136.31C207.02 71.16 175.14 18.13 106.01 28.05C102.07 28.67 97.08 29.55 93.8 30.32C91.58 30.94 89.48 31.06 90.98 33.35C106.72 49.43 118.4 70.6 121.43 93.17C133.97 183.68 -9.75999 185.16 0.530008 95.09C3.31001 72.99 16 51.4 31.45 35.78C33.55 33.78 34.57 31.66 31.19 30.49C24.01 28.05 16.23 27.35 8.74001 26.74C4.89001 26.54 5.51001 23.54 5.49001 19.99C5.49001 15.74 5.49001 9.76001 5.49001 5.62001C5.53001 2.89001 5.33001 1.25001 6.07001 0.580014C6.52001 0.150014 7.38001 0.0300143 8.72001 1.42823e-05C10.95 -0.0299857 14.52 0.170014 17.18 0.360014C27.62 1.05001 38.2 3.31001 48.13 6.64001C51.92 7.94001 56.03 9.96001 59.71 11.49C61 12.01 62.08 12.34 63.15 12.34C132.22 -17.56 225.2 6.16001 217.95 94.35C216.39 117.06 207.11 138.34 195.25 157.15C194.14 158.94 193.17 159.49 191.25 159.42C185.72 159.42 167.45 159.44 161.54 159.42C160.79 159.43 159.71 159.32 159.87 158.44V158.36H159.88ZM54.1 51.93C41.39 64.58 31.21 83.63 30.5 101.88C29.57 121.09 41.72 136.63 61.59 136.36C70.44 136.24 79.31 132.43 84.76 125.31C98.6 106.2 89.16 78.08 76.28 60.53C73.17 56.3 69.77 53.08 65.88 49.32C64.71 48.27 63.74 47.13 62.34 46.6C59.64 45.99 56.66 49.83 54.23 51.8L54.09 51.93H54.1Z" fill="#FF3003"/>
</g>
<defs>
<clipPath id="clip0_703_321">
<rect width="218.35" height="161.84" fill="white"/>
</clipPath>
</defs>
</svg>
